<?xml version="1.0" encoding="utf-8"?>
<!-- Generator: Adobe Illustrator 24.0.0, SVG Export Plug-In . SVG Version: 6.00 Build 0)  -->
<svg version="1.1" id="Layer_1" xmlns="http://www.w3.org/2000/svg" xmlns:xlink="http://www.w3.org/1999/xlink" x="0px" y="0px"
	 viewBox="0 0 500 500" style="enable-background:new 0 0 500 500;" xml:space="preserve">
<style type="text/css">
	.st0{fill:#0071BC;}
	.st1{fill:#FFFFFF;}
	.st2{fill:#338DC9;}
	.st3{fill:#333333;}
</style>
<g>
	<circle class="st0" cx="250" cy="250" r="227"/>
	<circle class="st1" cx="250" cy="250" r="214.96"/>
	<g>
		<path class="st0" d="M192.08,73.68c-1.68-6.27,2.37-12.99,8.77-14.7c3.38-0.9,6.88-0.31,9.67,1.42l-2.64,4.05
			c-1.7-1.15-3.82-1.66-5.87-1.11c-3.74,1-6.03,5.16-5,9.03c1.04,3.9,5.11,6.36,8.85,5.36c2.05-0.55,3.63-2.05,4.53-3.89l4.31,2.19
			c-1.57,2.86-4.3,5.15-7.67,6.06C200.63,83.78,193.75,79.95,192.08,73.68z"/>
		<path class="st0" d="M244.69,76.33l-5.7-7.18l-3.66,0.21l0.43,7.48l-4.93,0.28l-1.32-23.06l10.37-0.59c5-0.28,8.88,2.73,9.14,7.29
			c0.2,3.42-1.73,6.23-4.82,7.52l6.13,7.73L244.69,76.33z M235.07,64.82l4.9-0.28c2.45-0.14,4.06-1.51,3.94-3.49
			s-1.86-3.16-4.31-3.02l-4.9,0.28L235.07,64.82z"/>
		<path class="st0" d="M268.64,54.07l4.95,0.53l-2.45,22.97l-4.95-0.53L268.64,54.07z"/>
		<path class="st0" d="M287.52,76.58l3.65-2.52c1.61,2.39,3.7,4.15,6.52,4.93c2.4,0.66,3.93-0.1,4.31-1.5
			c0.43-1.59-0.73-2.43-3.92-4.14c-4.41-2.36-7.38-4.6-6.2-8.92c1.13-4.12,5.27-6.01,10.14-4.68c3.63,1,6.14,2.9,7.87,5.47
			l-3.44,2.75c-1.54-2.13-3.54-3.62-5.68-4.21c-2.04-0.56-3.57,0.17-3.93,1.5c-0.44,1.62,0.74,2.5,3.96,4.22
			c4.5,2.39,7.29,4.68,6.16,8.8c-1.17,4.25-5.15,6.18-10.59,4.69C292.54,81.93,289.46,79.69,287.52,76.58z"/>
	</g>
	<g>
		<path class="st2" d="M113.62,381.91c4.48-4.84,12.45-4.99,17.39-0.42c2.61,2.41,3.99,5.75,4.02,9.08l-4.91-0.08
			c0.07-2.08-0.64-4.18-2.22-5.65c-2.88-2.67-7.71-2.39-10.47,0.59c-2.79,3.01-2.7,7.84,0.18,10.51c1.58,1.46,3.73,2.01,5.8,1.79
			l0.45,4.89c-3.3,0.2-6.76-0.9-9.36-3.32C109.56,394.74,109.14,386.75,113.62,381.91z"/>
		<path class="st2" d="M149.36,424.33l-0.6-9.3l-3.18-1.94l-3.97,6.5l-4.29-2.62l12.24-20.03l9.01,5.51
			c4.34,2.66,5.84,7.41,3.42,11.38c-1.82,2.97-5.05,4.2-8.38,3.49l0.65,10.01L149.36,424.33z M147.98,409.15l4.26,2.6
			c2.13,1.3,4.26,1.08,5.31-0.64c1.05-1.72,0.27-3.72-1.86-5.02l-4.26-2.6L147.98,409.15z"/>
		<path class="st2" d="M183.52,419.83l-1.62,4.39l11.05,4.08l-1.57,4.26l-11.05-4.08l-1.79,4.84l12.21,4.51l-1.57,4.26l-16.95-6.26
			l8.13-22.01l16.95,6.26l-1.57,4.26L183.52,419.83z"/>
		<path class="st2" d="M225.14,446.03l-10.33-1.57l-2.04,3.42l-5.57-0.85l12.99-21.76l5.57,0.85l5.92,24.64l-5.61-0.85
			L225.14,446.03z M224.06,441.55l-2.15-9l-4.74,7.95L224.06,441.55z"/>
		<path class="st2" d="M254.03,432.25l-7.31,0.26l-0.16-4.54l19.66-0.7l0.16,4.54l-7.31,0.26l0.67,18.91l-5.05,0.18L254.03,432.25z"
			/>
		<path class="st2" d="M281.85,424.91l4.96-0.97l4.51,23.04l-4.96,0.97L281.85,424.91z"/>
		<path class="st2" d="M324.66,411.83l-0.61,25.33l-5.27,2l-17.27-18.55l5.3-2.01l12.16,13.07l0.42-17.85L324.66,411.83z"/>
		<path class="st2" d="M344.34,406.03l2.51,3.95l9.96-6.31l2.43,3.84l-9.96,6.31l2.76,4.36l11-6.97l2.43,3.84l-15.27,9.67
			l-12.57-19.83l15.27-9.68l2.43,3.84L344.34,406.03z"/>
		<path class="st2" d="M377.97,401.06l-0.25-4.5c2.93-0.12,5.57-1.01,7.73-3.04c1.84-1.73,2-3.47,0.99-4.54
			c-1.15-1.22-2.49-0.66-5.67,1.2c-4.38,2.57-7.91,3.96-11.02,0.64c-2.97-3.16-2.41-7.76,1.32-11.27c2.79-2.62,5.77-3.78,8.92-3.92
			l0.56,4.44c-2.67,0.2-5.01,1.15-6.66,2.69c-1.57,1.47-1.74,3.18-0.79,4.21c1.17,1.24,2.56,0.69,5.77-1.2
			c4.46-2.64,7.93-3.83,10.9-0.67c3.06,3.26,2.63,7.74-1.55,11.67C385.27,399.55,381.69,401.03,377.97,401.06z"/>
	</g>
	<path class="st3" d="M324.59,219.72c-12.33,0-22.33,10-22.33,22.33c0,12.33,10,22.33,22.33,22.33c12.33,0,22.33-10,22.33-22.33
		C346.92,229.71,336.92,219.72,324.59,219.72z M334.74,256.25c-4.48,0-8.12-3.63-8.12-8.12c0-1.4,0.39-2.69,1.01-3.84
		c-1.75,1.14-3.84,1.81-6.08,1.81c-6.17,0-11.16-5-11.16-11.16c0-6.17,5-11.16,11.16-11.16c6.17,0,11.16,5,11.16,11.16
		c0,2.24-0.67,4.33-1.81,6.08c1.15-0.62,2.44-1.01,3.84-1.01c4.48,0,8.12,3.63,8.12,8.12C342.86,252.62,339.22,256.25,334.74,256.25
		z"/>
	<path class="st3" d="M152.07,242.04c0,12.33,10,22.33,22.33,22.33c12.33,0,22.33-10,22.33-22.33c0-12.33-10-22.33-22.33-22.33
		C162.07,219.72,152.07,229.71,152.07,242.04z M156.13,248.13c0-4.48,3.63-8.12,8.12-8.12c1.4,0,2.69,0.39,3.84,1.01
		c-1.14-1.75-1.81-3.84-1.81-6.08c0-6.17,5-11.16,11.16-11.16c6.17,0,11.16,5,11.16,11.16c0,6.17-5,11.16-11.16,11.16
		c-2.24,0-4.33-0.67-6.08-1.81c0.62,1.15,1.01,2.44,1.01,3.84c0,4.48-3.63,8.12-8.12,8.12S156.13,252.62,156.13,248.13z"/>
	<g>
		<path class="st3" d="M277,287.34c-4.37,1.03-8.75,2.06-13.12,3.1l-14.42-22.25l-14.72,22.7c-3.78-0.42-7.56-0.85-11.34-1.27
			l26.06,40.21L277,287.34z"/>
	</g>
	<path class="st0" d="M176.43,136.5c-58.2,0-105.54,47.35-105.54,105.54s47.35,105.54,105.54,105.54c19.39,0,37.54-5.3,53.16-14.48
		l-22.08-34.07c-9.23,5.07-19.82,7.96-31.07,7.96c-35.81,0-64.95-29.14-64.95-64.95c0-35.81,29.14-64.95,64.95-64.95
		c13.23,0,25.53,3.99,35.8,10.81c11.81,5.86,25.4,0.55,29.63-9.52c3.37-8.04,0.46-18.38-7.56-24.52
		C227.45,149.35,217.17,136.5,176.43,136.5z"/>
	<path class="st2" d="M324.24,136.5c-21.92-0.14-42.28,6.49-59.22,17.86c-9.16,6.03-12.48,17.35-8.68,25.83
		c4.59,10.25,19.05,15.19,30.74,8.2c4.3-2.94,11.48-7.1,21.24-9.47c7.34-1.78,15.16-2.31,23.24-1.34
		c29.63,3.57,53.3,27.48,56.57,57.14c4.3,39.08-26.32,72.28-64.55,72.28c-11.56,0-22.4-3.06-31.81-8.39l-22.09,34.09
		c15.79,9.44,34.21,14.89,53.9,14.89c58.23,0,105.6-47.4,105.54-105.64C429.07,184.38,381.8,136.86,324.24,136.5z"/>
	<g>
		<path class="st0" d="M160.61,127.97c25.06-18.41,55.98-29.3,89.39-29.3c33.42,0,64.34,10.9,89.4,29.31
			c8.34,0.71,16.44,2.3,24.19,4.73C334.17,104.2,294.1,86.63,250,86.63c-44.05,0-84.07,17.53-113.48,45.97
			C144.23,130.22,152.3,128.66,160.61,127.97z"/>
		<path class="st0" d="M361.69,352C334,382.3,294.18,401.33,250,401.33c-44.18,0-84-19.04-111.69-49.33
			c-7.99-2.32-15.63-5.46-22.8-9.37c29.5,42.7,78.78,70.75,134.5,70.75c55.71,0,105-28.04,134.5-70.74
			C377.33,346.54,369.68,349.68,361.69,352z"/>
	</g>
</g>
</svg>
