<?xml version="1.0" encoding="utf-8"?>
<!-- Generator: Adobe Illustrator 24.0.0, SVG Export Plug-In . SVG Version: 6.00 Build 0)  -->
<svg version="1.1" id="Layer_1" xmlns="http://www.w3.org/2000/svg" xmlns:xlink="http://www.w3.org/1999/xlink" x="0px" y="0px"
	 viewBox="0 0 500 500" enable-background="new 0 0 500 500" xml:space="preserve">
<rect x="265.24" y="295.53" fill="#333333" width="16.41" height="28.13"/>
<rect x="157.4" y="258.02" transform="matrix(6.123234e-17 -1 1 6.123234e-17 -63.1116 481.0586)" fill="#333333" width="103.15" height="28.13"/>
<path fill="#333333" d="M124.58,295.53c-12.95,0-23.44-10.5-23.44-23.44c0-12.95,10.5-23.44,23.44-23.44v-28.13
	C96.09,220.51,73,243.6,73,272.09s23.09,51.58,51.58,51.58V295.53z"/>
<path fill="#333333" d="M162.09,226.15v-5.64h-28.13v51.58C133.95,252.05,145.39,234.69,162.09,226.15z"/>
<path fill="#333333" d="M133.95,272.09v51.58h28.13v-5.64C145.39,309.48,133.95,292.12,133.95,272.09z"/>
<path fill="#333333" d="M185.53,248.64v-28.13c-8.44,0-16.41,2.04-23.44,5.64v45.94C162.09,259.14,172.58,248.64,185.53,248.64z"/>
<path fill="#333333" d="M133.95,272.09c0,20.04,11.44,37.4,28.13,45.94v-45.94v-45.94C145.39,234.69,133.95,252.05,133.95,272.09z"
	/>
<path fill="#333333" d="M260.55,253.33c0-2.59,2.1-4.69,4.69-4.69v-28.13c-18.13,0-32.82,14.69-32.82,32.82s14.69,32.82,32.82,32.82
	v-28.13C262.65,258.02,260.55,255.92,260.55,253.33z"/>
<path fill="#333333" d="M286.34,290.84c0,2.59-2.1,4.69-4.69,4.69v28.13c18.13,0,32.82-14.69,32.82-32.82
	c0-18.13-14.69-32.82-32.82-32.82v28.13C284.24,286.15,286.34,288.25,286.34,290.84z"/>
<polygon fill="#333333" points="265.24,220.51 265.24,248.64 268.65,248.64 279.3,248.64 279.3,220.51 "/>
<polygon fill="#333333" points="269.22,258.02 265.24,258.02 265.24,286.15 281.65,286.15 281.65,258.02 "/>
<path fill="#333333" d="M279.3,248.64c16.53,0,30.17-12.23,32.45-28.13H279.3V248.64z"/>
<path fill="#333333" d="M223.04,208.79c0-16.53-12.23-30.17-28.13-32.45v32.45H223.04z"/>
<g>
	<circle fill="none" cx="375.42" cy="272.09" r="23.44"/>
	<linearGradient id="SVGID_1_" gradientUnits="userSpaceOnUse" x1="337.9139" y1="272.0851" x2="337.9139" y2="208.7871">
		<stop  offset="0" style="stop-color:#29AAE2"/>
		<stop  offset="0.1355" style="stop-color:#28A4DA"/>
		<stop  offset="0.3609" style="stop-color:#2193CA"/>
		<stop  offset="0.6484" style="stop-color:#167AB2"/>
		<stop  offset="0.9836" style="stop-color:#005C98"/>
		<stop  offset="0.9944" style="stop-color:#005B97"/>
	</linearGradient>
	<path fill="url(#SVGID_1_)" d="M351.98,226.15v-17.36h-28.13v63.3C323.85,252.05,335.28,234.69,351.98,226.15z"/>
	<linearGradient id="SVGID_2_" gradientUnits="userSpaceOnUse" x1="375.4238" y1="272.0851" x2="427" y2="272.0851">
		<stop  offset="0" style="stop-color:#29AAE2"/>
		<stop  offset="0.1355" style="stop-color:#28A4DA"/>
		<stop  offset="0.3609" style="stop-color:#2193CA"/>
		<stop  offset="0.6484" style="stop-color:#167AB2"/>
		<stop  offset="0.9836" style="stop-color:#005C98"/>
		<stop  offset="0.9944" style="stop-color:#005B97"/>
	</linearGradient>
	<path fill="url(#SVGID_2_)" d="M375.42,220.51v28.13c12.95,0,23.44,10.5,23.44,23.44c0,12.95-10.5,23.44-23.44,23.44v28.13
		c28.48,0,51.58-23.09,51.58-51.58S403.91,220.51,375.42,220.51z"/>
	<path fill="#29AAE2" d="M375.42,248.64v-28.13c-8.44,0-16.41,2.04-23.44,5.64v45.94C351.98,259.14,362.48,248.64,375.42,248.64z"/>
	<path fill="#29AAE2" d="M351.98,272.09h-28.13c0,28.48,23.09,51.58,51.58,51.58v-28.13C362.48,295.53,351.98,285.03,351.98,272.09z
		"/>
	<linearGradient id="SVGID_3_" gradientUnits="userSpaceOnUse" x1="337.9139" y1="272.0851" x2="337.9139" y2="226.1498">
		<stop  offset="0" style="stop-color:#29AAE2"/>
		<stop  offset="0.1355" style="stop-color:#28A4DA"/>
		<stop  offset="0.3609" style="stop-color:#2193CA"/>
		<stop  offset="0.6484" style="stop-color:#167AB2"/>
		<stop  offset="0.9836" style="stop-color:#005C98"/>
		<stop  offset="0.9944" style="stop-color:#005B97"/>
	</linearGradient>
	<path fill="url(#SVGID_3_)" d="M351.98,226.15c-16.7,8.54-28.13,25.9-28.13,45.94h28.13V226.15z"/>
	<linearGradient id="SVGID_4_" gradientUnits="userSpaceOnUse" x1="337.9139" y1="208.7871" x2="337.9139" y2="176.3388">
		<stop  offset="5.618000e-03" style="stop-color:#005B97"/>
		<stop  offset="0.0164" style="stop-color:#005C98"/>
		<stop  offset="0.3516" style="stop-color:#167AB2"/>
		<stop  offset="0.6391" style="stop-color:#2193CA"/>
		<stop  offset="0.8645" style="stop-color:#28A4DA"/>
		<stop  offset="1" style="stop-color:#29AAE2"/>
	</linearGradient>
	<path fill="url(#SVGID_4_)" d="M323.85,176.34v32.45h28.13C351.98,192.26,339.75,178.62,323.85,176.34z"/>
</g>
<path fill="#333333" d="M265.24,295.53c-16.53,0-30.17,12.23-32.45,28.13h32.45V295.53z"/>
</svg>
